<svg id="Layer_1" data-name="Layer 1" xmlns="http://www.w3.org/2000/svg" viewBox="0 0 512 512"><defs><style>.cls-1{fill:#000000;}</style></defs><title>cart-glyph</title><path class="cls-1" d="M142.07,512H369.93a77,77,0,0,0,75.31-61.76l36.29-181.53H30.47L66.76,450.23A77,77,0,0,0,142.07,512ZM307.2,345.54a12.8,12.8,0,1,1,25.6,0v76.83a12.8,12.8,0,1,1-25.6,0Zm-64,0a12.8,12.8,0,1,1,25.6,0v76.83a12.8,12.8,0,1,1-25.6,0Zm-64,0a12.8,12.8,0,1,1,25.6,0v76.83a12.8,12.8,0,1,1-25.6,0Zm288-192.07H427.7L287.18,12.9a44.12,44.12,0,0,0-62.36,0L84.3,153.47H44.8a44.82,44.82,0,0,0,0,89.63H467.2a44.82,44.82,0,0,0,0-89.63Zm-346.7,0L242.92,31a18.52,18.52,0,0,1,26.16,0L391.5,153.47Z"/></svg>